<?xml version="1.0" encoding="utf-8"?>
<!-- Generator: Adobe Illustrator 15.1.0, SVG Export Plug-In . SVG Version: 6.00 Build 0)  -->
<!DOCTYPE svg PUBLIC "-//W3C//DTD SVG 1.1//EN" "http://www.w3.org/Graphics/SVG/1.1/DTD/svg11.dtd">
<svg version="1.1" id="Layer_1" xmlns="http://www.w3.org/2000/svg" xmlns:xlink="http://www.w3.org/1999/xlink" x="0px" y="0px"
	 width="1100.45px" height="498px" viewBox="-344.868 -201.473 1100.45 498" enable-background="new -344.868 -201.473 1100.45 498"
	 xml:space="preserve">
<g id="Layer_2" display="none">
	
		<image display="inline" overflow="visible" opacity="0.3" enable-background="new    " width="600" height="462" xlink:href="Pygotham2016Sketch2.png"  transform="matrix(1.9151 0 0 1.9151 -364.6748 -350.375)">
	</image>
</g>
<g id="Layer_1_1_" xmlns:sketch="http://www.bohemiancoding.com/sketch/ns">
	<title>PygothamLogoNoText2</title>
	<desc>Created with Sketch.</desc>
	<g id="Page-1_1_" sketch:type="MSPage">
		<g id="PygothamLogoNoText" transform="translate(1.000000, 1.000000)" sketch:type="MSLayerGroup">
			<g id="Page-1" sketch:type="MSShapeGroup">
				
					<g id="Group" transform="translate(206.003271, 206.003271) rotate(-1.000000) translate(-206.003271, -206.003271) translate(3.503271, 3.503271)">
					<g id="Group-18" transform="translate(50.000000, 52.000000)">
						<g id="Path-9">
							<path fill="#3F6B9D" d="M71.921-172.064l36.789-15.746l27.169-26.174l45.616-18.624l37.546,3.751l35.537,22.817
								l26.015,40.001l28.959,26.25l50.229,38.621l17.817,44.048l0.737,46.406l-20.173,61.519l-95.467,36.008l-130.368-1.244
								L17.992,149.061l-35.848-41.853l-18.741-50.135L7.189-93.133L71.921-172.064z"/>
						</g>
						<g id="Fill-14">
							<path fill="#E5C247" d="M135.625-104.48c-12.172,8.209-49.5,23.255-63.657,30.311c-5.732,2.856-11.075,3.866-15.906,3.775
								c-7.098-0.139-13.091-2.656-17.592-5.208c-7.561-4.281-11.77-9.571-15.019-15.238c-4.834-8.41,8.961-21.525,8.961-21.525
								c3.875-4.938,8.37-11.28,11.383-16.376c3.285-5.54,7.474-10.037,11.514-15.942c2.992-4.376,5.038-9.767,9.615-16.084
								c2.29-3.159,5.21-6.549,9.201-10.166c11.22-10.157,23.233-13.759,23.233-13.759c11.564-2.951,15.925-8.29,25.187-17.666
								c9.259-9.381,27.7-21.379,45.166-26.088c11.231-3.029,20.818-4.418,29.527-4.251c14.492,0.281,26.569,4.879,39.79,13.433
								c31.3,20.265,45.371,60.207,45.639,60.979c0.006,0.018-1.795-0.266-5.502-0.339c-4.497-0.083-11.795,0.141-22.067,1.56
								c-16.918,2.346-31.432,8.223-40.422,12.105c-9.421,4.072-37.773,13.447-37.728,13.386L135.625-104.48z M363.489-101.101
								c-4.936-11.644-9.674-23.184-17.305-32.761c-7.63-9.578-36.03-20.895-64.859-24.746
								c-8.322-20.731-14.028-30.781-18.127-36.809c-14.11-20.743-45.268-38.313-66.48-38.313
								c-20.999,0-48.744,11.229-54.944,16.483c-45.775,38.781-24.946,23.627-59.032,38.781
								c-25.045,11.136-26.016-3.883-47.466-3.882c-21.449,0.001-31.672,7.892-45.01,19.366
								c-7.396,6.361-14.183,14.121-20.743,23.73c-11.224,16.419-20.391,34.781-26.506,53.091
								c-8.135,24.338-9.312,52.104-3.494,82.533c4.508,23.59,13.086,48.255,25.496,73.335c0.967,2.958,2.272,5.359,3.524,7.203
								c2.077,4.427,7.28,15.444,14.829,27.933C0.2,132.686,9.063,142.458,21.608,152.253c11.049,11.487,21.209,19.558,30.22,23.999
								c4.945,2.432,9.549,3.809,14.076,4.202c1.704,0.148,3.449,0.241,5.168,0.276c19.415,0.372,34.341-6.778,47.505-13.084
								c10.444-5.003,19.46-9.324,30.175-10.031c1.346-0.093,2.696-0.126,4.049-0.098c12.579,0.243,22.416,5.433,33.808,11.445
								c12.448,6.566,26.558,14.01,45.027,14.848c23.463,0.467,39.246-14.18,49.691-23.87c8.938-8.291,18.056-18.234,27.11-29.551
								c12.433-15.544,21.754-28.336,35.54-49.34c16.333-31.173,15.57-25.726,27.891-67.081c6.237-20.931,8.157-42.67,5.717-64.62
								C377.582-50.655,365.819-96.498,363.489-101.101L363.489-101.101z M-31.34,75.971c5.106-15.3,13.297-31.377,35.786-49.31
								C17.086,16.583,42.647,6.345,49.598,3.796c20.268-7.428,46.37-12.198,67.523-16.883
								c53.68-11.876,94.342-12.379,143.492-22.09c8.399-1.66,15.994-3.441,22.852-5.316c75.971-20.706,75.077-70.244,75.077-70.244
								c0.185,0.341,12.795,30.036,17.813,52.584c3.946,17.733,3.547,40.734-2.776,61.948c-5.819,19.537,1.652-4.193-4.186,13.988
								c0,0-6.384,21.335-26.877,34.924c-10.994,7.292-15.711,9.32-33.181,10.889c-17.47,1.568-25.621,0.784-32.523,0
								c-8.516-0.977-12.563-2.188-25.473-2.714c-2.325-0.097-4.691-0.165-7.034-0.212c-26.085-0.504-54.543,2.061-86.998,7.849
								c-56.378,10.056-72.853,10.489-104.527,33.098c-3.555,2.537-16.016,13.731-26.389,28.804l-10.918,15.887
								c-25.506-27.454-24.836-28.722-31.866-39.704C-16.492,106.176-31.504,76.466-31.34,75.971L-31.34,75.971z"/>
							<path fill="#DD6527" d="M231.709,187.52c-0.001,0-0.001,0-0.003,0l-0.145-0.003c-19.399-0.879-33.894-8.529-46.685-15.277
								c-10.978-5.79-20.453-10.79-32.15-11.017c-0.002,0-0.004,0-0.005,0c-1.297-0.023-2.517,0.008-3.718,0.091
								c-10.009,0.659-18.724,4.835-28.817,9.669c-13.517,6.476-28.822,13.808-49.045,13.455c-1.956-0.039-3.777-0.135-5.563-0.291
								c-4.992-0.434-10.027-1.929-15.391-4.569c-9.345-4.607-19.797-12.87-31.072-24.568c-8.722-6.829-16.163-13.988-26.089-28.251
								c-5.158-6.253-7.25-9.642-9.897-13.925c-0.791-1.281-1.639-2.654-2.648-4.23l-0.349-0.544l-0.061-0.271
								c-0.491-1.028-2.274-4.609-4.005-8.084l-0.077-0.155c-5.37-9.531-9.151-17.542-10.686-20.809
								c-1.561-2.348-2.814-4.909-3.726-7.625c-12.496-25.3-21.143-50.213-25.699-74.051c-5.938-31.056-4.721-59.454,3.62-84.405
								c6.223-18.634,15.546-37.31,26.961-54.008c6.74-9.871,13.736-17.868,21.386-24.447c14.229-12.241,25.218-20.264,47.43-20.264
								c9.281,0.002,15.04,2.568,20.107,4.822c3.732,1.661,6.954,3.095,11.1,3.168c4.037,0.07,8.863-1.169,14.753-3.788
								c2.447-1.087,4.613-2.021,6.544-2.83c4.912-2.469,8.368-3.517,8.514-3.561l0.148-0.04c0.54-0.138,1.062-0.281,1.569-0.431
								l0.789-0.292c2.176-0.805,3.754-1.39,5.128-2.049c4.815-2.508,8.299-6.067,13.564-11.446c0.77-0.787,1.574-1.608,2.415-2.461
								c4.681-4.741,11.277-9.838,18.593-14.369l0.876-0.743c7.196-6.099,35.687-17.362,57.339-17.361l0.752,0.007
								c22.84,0.399,54.346,18.684,68.798,39.928c2.232,3.281,4.425,6.984,6.699,11.32c6.65,10.716,10.712,20.239,12.349,24.4
								c27.899,4.3,55.623,15.379,63.772,25.608c7.644,9.596,12.518,21.108,17.233,32.242l0.545,1.287
								c0.601,1.246,1.774,4.454,5.218,16.86c3.568,10.293,6.224,19.318,7.894,26.826c2.844,12.783,3.409,27.881,1.586,42.517
								c-1.013,10.612-3.08,21.198-6.141,31.467c-10.227,34.32-11.648,36.953-20.886,54.088c-1.995,3.701-4.362,8.094-7.276,13.655
								l-0.185,0.314c-13.336,20.318-22.69,33.304-35.744,49.623c-9.174,11.47-18.421,21.548-27.485,29.953
								C272.983,172.738,256.581,187.954,231.709,187.52z M152.763,153.804c13.566,0.262,23.763,5.641,35.569,11.871
								c12.109,6.391,25.827,13.628,43.471,14.428l-0.032,3.708l0.065-3.708c21.888,0.383,36.973-13.612,46.953-22.872
								c8.808-8.169,17.805-17.975,26.748-29.16c12.862-16.077,22.094-28.891,35.235-48.907c2.894-5.517,5.249-9.886,7.234-13.572
								c4.997-9.269,7.612-14.113,10.597-22.12c-3.757,4.293-8.384,8.579-14.037,12.328c-11.645,7.723-16.968,9.88-34.902,11.49
								c-7.884,0.709-14.557,1.004-20.399,0.902c-5.31-0.093-9.271-0.502-12.876-0.91c-2.702-0.309-4.959-0.642-7.148-0.964
								c-4.804-0.706-9.344-1.373-18.057-1.729c-2.299-0.096-4.64-0.162-6.954-0.208l-0.611-0.011
								c-25.683-0.448-53.703,2.103-85.662,7.801c-6.948,1.239-13.289,2.332-19.13,3.338c-41.34,7.127-56.807,9.795-83.893,29.127
								c-3.305,2.359-15.483,13.35-25.489,27.889l-9.406,13.687c1.262,1.063,2.541,2.093,3.85,3.114l0.391,0.354
								c10.747,11.175,20.566,18.994,29.186,23.242c4.523,2.225,8.696,3.481,12.757,3.835c1.621,0.141,3.276,0.228,4.921,0.263
								c18.598,0.325,33.061-6.605,45.823-12.718c10.799-5.175,20.113-9.636,31.538-10.391
								C149.91,153.817,151.346,153.78,152.763,153.804z M-1.057,122.272c3.616,4.367,8.783,10.181,16.099,18.111l8.289-12.062
								c10.368-15.063,23.083-26.719,27.292-29.724c28.466-20.318,45.584-23.27,86.945-30.399
								c5.827-1.005,12.154-2.095,19.086-3.331c32.436-5.784,60.924-8.373,87.094-7.916l0.627,0.011
								c2.373,0.048,4.766,0.114,7.116,0.214c9.099,0.37,13.826,1.066,18.831,1.802c2.128,0.313,4.329,0.637,6.911,0.932
								c3.562,0.404,7.177,0.776,12.163,0.863c5.573,0.097,11.988-0.188,19.607-0.873c16.753-1.505,20.919-3.292,31.464-10.285
								C359.62,36.914,365.78,16.918,365.84,16.72c0.922-2.88,1.512-4.7,1.876-5.827c0.33-1.519,1.055-3.947,2.308-8.157
								c1.903-6.378,3.302-13.103,4.166-19.988c1.025-10.775,0.932-21.787-0.267-32.734c-0.594-2.312-5.135-19.922-8.928-33.588
								c-1.731-4.984-3.48-9.689-5.014-13.676c-5.12,17.017-21.74,45.671-75.54,60.335c-7.075,1.934-14.852,3.744-23.109,5.376
								c-22.504,4.446-43.665,7.026-64.13,9.52c-24.682,3.009-50.205,6.12-79.28,12.552c-4.207,0.932-8.611,1.868-13.126,2.827
								C87.02-2.864,66.872,1.415,50.876,7.278C42.549,10.331,18.394,20.282,6.76,29.561C-14.96,46.88-22.631,62.042-27.385,75.858
								c1.589,3.462,6.89,14.11,9.93,20.216c1.314,2.329,2.66,4.634,4,6.851C-8.782,110.655-4.725,116.986-1.057,122.272z
								 M36.001-178.632l-0.724-0.006c-20.101,0.001-29.28,7.018-42.592,18.469c-7.153,6.153-13.728,13.679-20.099,23.008
								c-11.033,16.141-20.042,34.182-26.051,52.175c-7.932,23.73-9.066,50.869-3.37,80.66c4.395,22.992,12.726,47.06,24.765,71.551
								c5.255-12.853,14.27-27.572,34.204-43.465C17.085,11.838,48.01,0.427,48.322,0.312c16.493-6.046,36.915-10.383,54.933-14.209
								c4.493-0.954,8.876-1.884,13.064-2.813c29.425-6.508,55.129-9.642,79.986-12.672c21.268-2.592,41.354-5.041,63.59-9.435
								c8.084-1.597,15.686-3.365,22.593-5.254c72.004-19.625,72.367-64.705,72.344-66.614l0.436-0.113
								c-3.39-7.519-7.058-14.566-11.986-20.752c-6.213-7.799-31.589-18.789-59.836-23.01l-0.848-0.015
								c-0.055-0.001-0.23-0.007-0.529-0.042c-1.409-0.16-3.083-0.26-4.976-0.298c-0.002,0-0.002,0-0.002,0
								c-4.281-0.075-11.397,0.131-21.484,1.524c-15.738,2.183-29.356,7.472-39.459,11.836
								c-4.745,2.051-30.248,11.214-37.459,13.277l-41.031,26.899c-8.199,5.531-26.803,13.77-43.217,21.04
								c-8.231,3.646-16.005,7.089-20.821,9.489c-5.751,2.867-11.666,4.268-17.578,4.164c-6.545-0.128-12.874-1.989-19.403-5.692
								c-9.028-5.11-13.511-11.566-16.407-16.619c-5.906-10.273,7.076-23.588,9.419-25.862c4.105-5.247,8.287-11.27,10.95-15.773
								c2.024-3.414,4.289-6.346,6.685-9.45c1.635-2.119,3.326-4.308,4.962-6.698c1.157-1.693,2.176-3.582,3.355-5.769
								c1.657-3.073,3.535-6.557,6.316-10.395c1.961-2.706,4.137-5.265,6.595-7.755c-0.73,0.044-1.45,0.061-2.161,0.048
								c-5.654-0.099-9.891-1.984-13.987-3.808C47.895-176.448,43.271-178.505,36.001-178.632z M90.887-177.943
								c-5.268,2.672-10.069,5.955-14.273,9.76c-3.398,3.08-6.24,6.218-8.687,9.592c-2.491,3.441-4.17,6.553-5.792,9.564
								c-1.226,2.273-2.385,4.421-3.763,6.438c-1.756,2.566-3.512,4.842-5.212,7.043c-2.254,2.919-4.383,5.676-6.174,8.696
								c-2.85,4.816-7.316,11.246-11.657,16.775l-0.361,0.398c-3.804,3.631-10.842,12.567-8.3,16.989
								c2.579,4.497,6.212,9.657,13.629,13.857c5.431,3.08,10.611,4.625,15.837,4.728c4.748,0.083,9.504-1.056,14.178-3.387
								c4.966-2.475,12.816-5.952,21.125-9.632c15.334-6.792,34.418-15.244,42.114-20.434l42.324-27.748l0.546,0.01
								c4.035-1.296,28.376-9.436,36.784-13.07c10.536-4.551,24.76-10.07,41.384-12.374c9.564-1.323,16.64-1.622,21.198-1.609
								c-3.28-7.882-6.39-14.642-9.268-20.149c-9.188-14.746-19.789-26.069-31.506-33.654
								c-13.518-8.747-24.837-12.586-37.846-12.838c-8.382-0.146-17.664,1.203-28.489,4.124
								c-10.244,2.762-19.648,7.775-25.808,11.551c-6.785,5.756-12.048,10.275-16.219,13.858
								c-11.834,10.164-15.047,12.922-19.405,15.034c-2.111,1.091-4.365,1.99-6.885,2.746
								C97.796-180.722,94.87-179.608,90.887-177.943z"/>
						</g>
						<g id="Path">
							<path fill="#DD6527" d="M56.043-66.685c-0.018,0-0.034-0.001-0.052-0.001c-6.492-0.127-12.822-1.988-19.35-5.691
								c-9.029-5.11-13.511-11.566-16.407-16.619c-5.906-10.273,7.076-23.589,9.419-25.862c4.104-5.247,8.287-11.27,10.951-15.773
								c2.024-3.414,4.288-6.346,6.685-9.45c1.635-2.118,3.326-4.308,4.962-6.698c1.157-1.693,2.176-3.582,3.355-5.77
								c1.657-3.073,3.535-6.556,6.316-10.395c2.753-3.798,5.93-7.31,9.715-10.739c11.709-10.599,24.135-14.407,24.659-14.564
								l0.148-0.039c9.51-2.427,13.609-6.616,21.051-14.218c0.77-0.788,1.573-1.608,2.414-2.461
								c9.648-9.774,28.835-22.209,46.84-27.063c11.56-3.118,21.622-4.523,30.564-4.378c14.297,0.277,27.168,4.603,41.734,14.027
								c32.205,20.852,46.532,61.167,47.128,62.874l0.69,1.985l-1.349,1.614c-0.585,0.701-1.646,1.497-3.445,1.29
								c-1.409-0.16-3.083-0.26-4.976-0.298c-0.03,0-0.061-0.001-0.09-0.002c-4.213-0.074-11.324,0.133-21.396,1.526
								c-15.738,2.183-29.356,7.472-39.459,11.836c-5.022,2.171-15.087,5.73-22.645,8.334c-4.139,1.427-7.982,2.723-10.795,3.662
								c-1.412,0.471-2.561,0.851-3.361,1.113c-0.655,0.215-1.374,0.45-2.103,0.527c-3.757,2.039-8.163,3.875-13.291,5.393
								c-5.944,6.304-14.638,13.292-26.256,21.121c-8.239,5.557-26.843,13.796-43.256,21.067
								c-8.231,3.645-16.005,7.088-20.821,9.488C67.87-67.982,61.955-66.581,56.043-66.685z M98.369-181.122
								c-0.863,0.274-11.719,3.854-21.754,12.938c-3.398,3.08-6.24,6.218-8.687,9.592c-2.491,3.441-4.17,6.553-5.792,9.564
								c-1.226,2.274-2.385,4.421-3.763,6.438c-1.756,2.566-3.512,4.842-5.212,7.043c-2.254,2.919-4.383,5.676-6.174,8.696
								c-2.85,4.816-7.316,11.246-11.657,16.775l-0.361,0.398c-3.804,3.632-10.842,12.567-8.3,16.99
								c2.579,4.497,6.212,9.657,13.629,13.857c5.431,3.079,10.611,4.625,15.837,4.728c0.014,0,0.027,0,0.041,0.001
								c4.707,0.082,9.463-1.057,14.137-3.388c4.966-2.475,12.816-5.952,21.125-9.632c15.334-6.792,34.418-15.244,42.114-20.434
								c16.716-11.265,27.203-20.758,31.167-28.216l0.313-0.565c0.718-1.466,1.402-2.884,2.071-4.276
								c5.81-12.065,10.832-22.486,19.26-22.339c0.005,0,0.011,0,0.018,0c1.039,0.022,2.082,0.211,3.105,0.563
								c3.994,1.361,6.391,5.385,6.247,10.502c-0.096,3.457-1.32,7.438-3.984,11.427c8.031-2.773,16.999-5.978,21.458-7.906
								c10.536-4.551,24.76-10.07,41.384-12.374c10.475-1.448,17.968-1.671,22.46-1.597c-4.927-11.417-18.564-38.62-42.035-53.815
								c-13.518-8.747-24.837-12.586-37.846-12.838c-8.266-0.116-17.614,1.19-28.489,4.124
								c-16.732,4.51-34.544,16.046-43.492,25.113c-0.835,0.844-1.628,1.656-2.393,2.436
								C114.99-189.343,109.828-184.068,98.369-181.122z M186.227-155.534c-3.672-0.064-8.331,9.608-12.441,18.141
								c-0.611,1.268-1.231,2.558-1.867,3.858c12.461-6.191,16.279-14.369,16.397-18.559c0.048-1.69-0.449-3.007-1.234-3.275
								c-0.31-0.106-0.583-0.159-0.852-0.164L186.227-155.534z"/>
						</g>
						<g id="Eye">
							<path fill="#FFFFFF" d="M96.085-113.31c5.098,0.098,9.315-3.959,9.411-9.059c0.1-5.104-3.958-9.317-9.057-9.416
								c-5.105-0.098-9.315,3.953-9.413,9.059C86.93-117.625,90.981-113.408,96.085-113.31"/>
						</g>
					</g>
					<g id="Shape">
						<path fill="#21314D" d="M243.935,167.842C389.389,118.649,492.976,20.628,469.383-43.464
							c-9.262-25.381-42.05-50.147-87.224-52.432c0,0,4.914,2.821,6.815,4.171c2.083,1.48,6.248,4.442,6.248,4.442
							c38.466,7.589,58.991,23.88,67.197,46.371c21.543,58.528-78.944,153.73-220.851,201.721
							C98.293,208.914-30.486,191.338-49.971,132.946c-8.6-26.019-1.137-69.867,32.783-102.943l0-10.424
							c-40.685,33.104-49.501,86.425-39.824,115.704C-35.669,199.245,97.146,217.126,243.935,167.842z"/>
					</g>
					<g id="Shape_1_">
						<path fill="#21314D" d="M172.188,140.883c142.049,58.301,276.902,57.09,300.648-8.604c8.828-24.42-8.41-70.314-40.444-103.751
							l-0.931,10.053c24.289,31.299,40.585,71.107,34.441,91.057c-18.092,58.755-152.306,61.264-290.891,4.386
							C35.325,76.331-58.463-18.458-34.86-75.31c10.856-25.938,31.581-42.394,77.639-43.167l10.421-7.618
							c-59.057,2.062-82.621,18.575-94.908,47.93C-67.562-15.889,29.072,81.776,172.188,140.883z"/>
					</g>
					<g id="Shape_2_">
						<path fill="#21314D" d="M18.337,6.473C69.917-5.257,139.72-12.661,214.293-13.961c74.572-1.302,144.591,3.661,196.55,13.583
							c53.253,10.171,83.854,24.64,84.162,42.362c0.257,14.699-37.809,31.698-74.836,42.661l2.938-9.48
							c34.367-10.815,66.152-22.299,65.964-33.079c-0.233-13.386-29.115-27.043-79.342-36.634
							C358.204-4.388,288.585-9.321,214.395-8.027C140.207-6.733,70.802,0.628,19.652,12.26
							C-30.211,23.6-54.929,42.667-56.382,56.076c-1.709,15.77,26.213,23.652,53.177,32.312l3.578,8.892
							C-22.44,88.914-62.966,82.241-63.419,56.2C-63.739,37.85-34.531,18.495,18.337,6.473z"/>
					</g>
				</g>
			</g>
		</g>
	</g>
</g>
<g id="Stars">
	<polygon fill="#E5C247" points="545.829,-68.503 540.496,-31.836 519.162,-52.836 535.496,-24.836 502.829,-20.169 
		531.162,-14.169 511.162,15.679 538.496,-1.169 548.496,37.831 555.496,-1.503 580.162,15.679 559.496,-12.836 587.162,-18.503 
		559.745,-24.806 580.162,-49.169 553.496,-33.169 	"/>
	<polygon fill="#E5C247" points="-116.811,-155.211 -123.672,-108.033 -151.122,-135.053 -130.106,-99.027 -172.137,-93.022 
		-135.683,-85.302 -161.415,-46.897 -126.246,-68.576 -113.379,-18.396 -104.373,-69.005 -72.636,-46.897 -99.226,-83.586 
		-63.629,-90.878 -98.905,-98.988 -72.636,-130.336 -106.946,-109.749 	"/>
	<polygon fill="#E5C247" points="-108.535,163.03 -112.518,190.413 -128.45,174.73 -116.252,195.641 -140.647,199.125 
		-119.489,203.606 -134.424,225.897 -114.011,213.314 -106.544,242.439 -101.316,213.065 -82.896,225.897 -98.329,204.603 
		-77.668,200.37 -98.143,195.663 -82.896,177.468 -102.81,189.417 	"/>
	<polygon fill="#E5C247" points="-278.933,44.439 -281.682,63.344 -292.682,52.517 -284.26,66.953 -301.103,69.359 -286.495,72.453 
		-296.806,87.842 -282.713,79.155 -277.558,99.263 -273.948,78.983 -261.231,87.842 -271.886,73.141 -257.622,70.218 
		-271.758,66.969 -261.231,54.407 -274.98,62.656 	"/>
	<polygon fill="#E5C247" points="483.594,156.635 481.441,171.431 472.833,162.957 479.424,174.255 466.242,176.138 477.675,178.56 
		469.604,190.604 480.635,183.805 484.67,199.542 487.495,183.671 497.447,190.604 489.109,179.098 500.272,176.811 
		489.209,174.268 497.447,164.436 486.687,170.893 	"/>
	<polygon fill="#FFFFFF" points="592.495,109.831 587.162,146.498 567.162,123.831 579.829,153.164 551.162,156.635 
		578.495,165.164 557.162,195.831 587.162,178.089 596.495,217.164 603.162,178.089 627.162,195.164 607.829,168.498 
		634.495,159.831 607.829,156.635 629.162,129.831 601.162,146.498 	"/>
	<polygon fill="#FFFFFF" points="483.104,-176.553 480.655,-159.715 471.472,-170.124 477.288,-156.654 464.124,-155.061 
		476.676,-151.144 466.879,-137.062 480.655,-145.208 484.941,-127.265 488.003,-145.208 499.023,-137.368 490.146,-149.613 
		502.391,-153.593 490.146,-155.061 499.941,-167.369 487.084,-159.715 	"/>
	<polygon fill="#FFFFFF" points="-198.59,93.213 -200.698,107.704 -208.602,98.746 -203.596,110.338 -214.925,111.709 
		-204.123,115.081 -212.554,127.2 -200.698,120.188 -197.009,135.631 -194.375,120.188 -184.89,126.937 -192.531,116.398 
		-181.992,112.973 -192.531,111.709 -184.1,101.117 -195.166,107.704 	"/>
	<polygon fill="#FFFFFF" points="-208.562,-119.253 -211.017,-102.372 -220.225,-112.808 -214.393,-99.303 -227.592,-97.705 
		-215.007,-93.777 -224.83,-79.658 -211.017,-87.827 -206.719,-69.836 -203.65,-87.827 -192.601,-79.965 -201.502,-92.243 
		-189.224,-96.233 -201.502,-97.705 -191.68,-110.045 -204.571,-102.372 	"/>
	<polygon fill="#DD6527" points="710.828,15.679 706.828,37.831 689.162,26.755 701.829,47.442 677.162,51.164 698.495,54.126 
		684.495,79.164 704.495,63.164 713.162,93.164 717.162,65.164 737.829,77.164 722.163,58.497 741.162,47.442 719.605,47.442 
		735.829,27.164 715.162,37.831 	"/>
	<polygon fill="#DD6527" points="-159.503,-2.175 -163.035,17.381 -178.63,7.603 -167.448,25.866 -189.224,29.151 -170.391,31.767 
		-182.751,53.87 -165.094,39.745 -157.443,66.229 -153.912,41.511 -135.667,52.104 -149.497,35.625 -132.724,25.866 
		-151.754,25.866 -137.432,7.964 -155.677,17.381 	"/>
	<polygon fill="#DD6527" points="-248.684,215.697 -251.465,231.099 -263.749,223.398 -254.941,237.783 -272.093,240.37 
		-257.259,242.431 -266.994,259.84 -253.087,248.715 -247.061,269.574 -244.28,250.105 -229.909,258.449 -240.802,245.47 
		-227.592,237.783 -242.581,237.783 -231.3,223.683 -245.67,231.099 	"/>
	<polygon fill="#DD6527" points="618.836,-135.9 616.581,-123.414 606.623,-129.657 613.764,-117.995 599.859,-115.898 
		611.884,-114.228 603.992,-100.114 615.267,-109.133 620.151,-92.223 622.406,-108.006 634.057,-101.242 625.226,-111.764 
		635.935,-117.995 623.784,-117.995 632.93,-129.426 621.279,-123.414 	"/>
</g>
</svg>
